<mxfile host="app.diagrams.net" modified="2020-11-05T06:55:15.310Z" agent="5.0 (Windows NT 10.0; Win64; x64) AppleWebKit/537.36 (KHTML, like Gecko) Chrome/84.0.4147.105 Safari/537.36" etag="uYht6HLDmF52Qsq5YngQ" version="13.8.6" type="github">
  <diagram id="dAvzmWWmF4vz5P4AHdHi" name="Page-1">
    <mxGraphModel dx="2411" dy="1070" grid="1" gridSize="10" guides="1" tooltips="1" connect="1" arrows="1" fold="1" page="1" pageScale="1" pageWidth="827" pageHeight="1169" math="0" shadow="0">
      <root>
        <mxCell id="0" />
        <mxCell id="1" parent="0" />
        <mxCell id="XJ3LXA7MW8zPhXsOhgYq-1" value="CalculatorGraph" style="html=1;" vertex="1" parent="1">
          <mxGeometry x="-110" y="360" width="1530" height="460" as="geometry" />
        </mxCell>
        <mxCell id="XJ3LXA7MW8zPhXsOhgYq-2" value="GraphInputStream" style="html=1;" vertex="1" parent="1">
          <mxGeometry x="-110" y="40" width="110" height="50" as="geometry" />
        </mxCell>
        <mxCell id="XJ3LXA7MW8zPhXsOhgYq-3" value="InputStreamHandler" style="html=1;" vertex="1" parent="1">
          <mxGeometry x="-110" y="100" width="110" height="50" as="geometry" />
        </mxCell>
        <mxCell id="XJ3LXA7MW8zPhXsOhgYq-4" value="InputStreamManager" style="html=1;" vertex="1" parent="1">
          <mxGeometry x="-110" y="160" width="110" height="50" as="geometry" />
        </mxCell>
        <mxCell id="XJ3LXA7MW8zPhXsOhgYq-5" value="GraphNode" style="html=1;" vertex="1" parent="1">
          <mxGeometry x="30" y="280" width="110" height="50" as="geometry" />
        </mxCell>
        <mxCell id="XJ3LXA7MW8zPhXsOhgYq-6" value="Executor" style="html=1;" vertex="1" parent="1">
          <mxGeometry x="30" y="220" width="110" height="50" as="geometry" />
        </mxCell>
        <mxCell id="XJ3LXA7MW8zPhXsOhgYq-7" value="CalculatorContract" style="html=1;" vertex="1" parent="1">
          <mxGeometry x="30" y="160" width="110" height="50" as="geometry" />
        </mxCell>
        <mxCell id="XJ3LXA7MW8zPhXsOhgYq-8" value="CalculatorContext" style="html=1;" vertex="1" parent="1">
          <mxGeometry x="30" y="100" width="110" height="50" as="geometry" />
        </mxCell>
        <mxCell id="XJ3LXA7MW8zPhXsOhgYq-9" value="InputSidePacket" style="html=1;" vertex="1" parent="1">
          <mxGeometry x="-110" y="280" width="110" height="50" as="geometry" />
        </mxCell>
        <mxCell id="XJ3LXA7MW8zPhXsOhgYq-10" value="OutputSidePacket" style="html=1;" vertex="1" parent="1">
          <mxGeometry x="290" y="280" width="110" height="50" as="geometry" />
        </mxCell>
        <mxCell id="XJ3LXA7MW8zPhXsOhgYq-11" value="InputStreamShardSet" style="html=1;" vertex="1" parent="1">
          <mxGeometry x="-110" y="220" width="110" height="50" as="geometry" />
        </mxCell>
        <mxCell id="XJ3LXA7MW8zPhXsOhgYq-12" value="OutputStreamShardSet" style="html=1;" vertex="1" parent="1">
          <mxGeometry x="290" y="220" width="110" height="50" as="geometry" />
        </mxCell>
        <mxCell id="XJ3LXA7MW8zPhXsOhgYq-14" value="OutputStreamHandler" style="html=1;" vertex="1" parent="1">
          <mxGeometry x="290" y="100" width="110" height="50" as="geometry" />
        </mxCell>
        <mxCell id="XJ3LXA7MW8zPhXsOhgYq-15" value="OutputStreamManager" style="html=1;" vertex="1" parent="1">
          <mxGeometry x="290" y="160" width="110" height="50" as="geometry" />
        </mxCell>
        <mxCell id="XJ3LXA7MW8zPhXsOhgYq-16" value="OutputStreamPoller" style="html=1;" vertex="1" parent="1">
          <mxGeometry x="290" y="40" width="110" height="50" as="geometry" />
        </mxCell>
        <mxCell id="XJ3LXA7MW8zPhXsOhgYq-17" value="CalculatorGraph" style="html=1;" vertex="1" parent="1">
          <mxGeometry x="30" y="40" width="110" height="50" as="geometry" />
        </mxCell>
        <mxCell id="XJ3LXA7MW8zPhXsOhgYq-18" value="SchedulerQueue" style="html=1;" vertex="1" parent="1">
          <mxGeometry x="160" y="40" width="110" height="50" as="geometry" />
        </mxCell>
        <mxCell id="XJ3LXA7MW8zPhXsOhgYq-19" value="Scheduler" style="html=1;" vertex="1" parent="1">
          <mxGeometry x="160" y="100" width="110" height="50" as="geometry" />
        </mxCell>
        <mxCell id="XJ3LXA7MW8zPhXsOhgYq-21" value="Executor" style="html=1;" vertex="1" parent="1">
          <mxGeometry x="160" y="160" width="110" height="50" as="geometry" />
        </mxCell>
        <mxCell id="XJ3LXA7MW8zPhXsOhgYq-22" value="Scheduler" style="html=1;" vertex="1" parent="1">
          <mxGeometry x="-360" y="740" width="220" height="220" as="geometry" />
        </mxCell>
        <mxCell id="XJ3LXA7MW8zPhXsOhgYq-23" value="SchedulerQueue" style="html=1;" vertex="1" parent="1">
          <mxGeometry x="-360" y="890" width="220" height="70" as="geometry" />
        </mxCell>
        <mxCell id="XJ3LXA7MW8zPhXsOhgYq-20" value="Executor" style="html=1;" vertex="1" parent="1">
          <mxGeometry x="-190" y="910" width="110" height="50" as="geometry" />
        </mxCell>
        <mxCell id="XJ3LXA7MW8zPhXsOhgYq-25" value="PacketGeneratorGraph" style="html=1;" vertex="1" parent="1">
          <mxGeometry x="160" y="220" width="110" height="50" as="geometry" />
        </mxCell>
        <mxCell id="XJ3LXA7MW8zPhXsOhgYq-30" value="OutputStreamShard" style="html=1;" vertex="1" parent="1">
          <mxGeometry x="414" y="40" width="110" height="50" as="geometry" />
        </mxCell>
        <mxCell id="XJ3LXA7MW8zPhXsOhgYq-35" value="" style="group" vertex="1" connectable="0" parent="1">
          <mxGeometry x="-90" y="400" width="320" height="160" as="geometry" />
        </mxCell>
        <mxCell id="XJ3LXA7MW8zPhXsOhgYq-32" value="" style="group" vertex="1" connectable="0" parent="XJ3LXA7MW8zPhXsOhgYq-35">
          <mxGeometry x="60" width="260" height="160" as="geometry" />
        </mxCell>
        <mxCell id="XJ3LXA7MW8zPhXsOhgYq-27" value="GraphInputStream" style="html=1;" vertex="1" parent="XJ3LXA7MW8zPhXsOhgYq-32">
          <mxGeometry width="260" height="160" as="geometry" />
        </mxCell>
        <mxCell id="XJ3LXA7MW8zPhXsOhgYq-29" value="OutputStreamManager" style="html=1;" vertex="1" parent="XJ3LXA7MW8zPhXsOhgYq-32">
          <mxGeometry y="102.85714285714285" width="124.34782608695652" height="57.14285714285714" as="geometry" />
        </mxCell>
        <mxCell id="XJ3LXA7MW8zPhXsOhgYq-31" value="OutputStreamShard" style="html=1;" vertex="1" parent="XJ3LXA7MW8zPhXsOhgYq-32">
          <mxGeometry x="135.65217391304347" y="102.85714285714285" width="124.34782608695652" height="57.14285714285714" as="geometry" />
        </mxCell>
        <mxCell id="XJ3LXA7MW8zPhXsOhgYq-34" value="AddPacket" style="html=1;verticalAlign=bottom;startArrow=oval;startFill=1;endArrow=block;startSize=8;" edge="1" parent="XJ3LXA7MW8zPhXsOhgYq-35">
          <mxGeometry width="60" relative="1" as="geometry">
            <mxPoint y="40" as="sourcePoint" />
            <mxPoint x="60" y="40" as="targetPoint" />
          </mxGeometry>
        </mxCell>
        <mxCell id="XJ3LXA7MW8zPhXsOhgYq-36" value="AddPacketToInputStreamInternal" style="html=1;verticalAlign=bottom;startArrow=oval;startFill=1;endArrow=block;startSize=8;" edge="1" parent="1">
          <mxGeometry width="60" relative="1" as="geometry">
            <mxPoint x="-290" y="440" as="sourcePoint" />
            <mxPoint x="-110" y="440" as="targetPoint" />
          </mxGeometry>
        </mxCell>
        <mxCell id="XJ3LXA7MW8zPhXsOhgYq-42" value="GraphOutputStreamHandler" style="html=1;fillColor=#9AC7BF;" vertex="1" parent="1">
          <mxGeometry x="-420" y="100" width="110" height="50" as="geometry" />
        </mxCell>
        <mxCell id="XJ3LXA7MW8zPhXsOhgYq-44" value="Extends" style="endArrow=block;endSize=16;endFill=0;html=1;entryX=0;entryY=0.5;entryDx=0;entryDy=0;" edge="1" parent="1" target="XJ3LXA7MW8zPhXsOhgYq-3">
          <mxGeometry width="160" relative="1" as="geometry">
            <mxPoint x="-310" y="124.29" as="sourcePoint" />
            <mxPoint x="-150" y="124.29" as="targetPoint" />
          </mxGeometry>
        </mxCell>
        <mxCell id="XJ3LXA7MW8zPhXsOhgYq-48" value="GraphOutputStream" style="html=1;fillColor=#FFE599;" vertex="1" parent="1">
          <mxGeometry x="600" y="100" width="110" height="50" as="geometry" />
        </mxCell>
        <mxCell id="XJ3LXA7MW8zPhXsOhgYq-50" value="OutputStreamPollerImpl" style="html=1;fillColor=#FFD966;" vertex="1" parent="1">
          <mxGeometry x="414" y="100" width="110" height="50" as="geometry" />
        </mxCell>
        <mxCell id="XJ3LXA7MW8zPhXsOhgYq-51" value="Extends" style="endArrow=block;endSize=16;endFill=0;html=1;exitX=1;exitY=0.5;exitDx=0;exitDy=0;entryX=0;entryY=0.5;entryDx=0;entryDy=0;" edge="1" parent="1" source="XJ3LXA7MW8zPhXsOhgYq-50" target="XJ3LXA7MW8zPhXsOhgYq-48">
          <mxGeometry width="160" relative="1" as="geometry">
            <mxPoint x="600" y="230" as="sourcePoint" />
            <mxPoint x="760" y="230" as="targetPoint" />
          </mxGeometry>
        </mxCell>
        <mxCell id="XJ3LXA7MW8zPhXsOhgYq-47" value="" style="group;fillColor=#FFE599;container=0;" vertex="1" connectable="0" parent="1">
          <mxGeometry x="1130" y="450.81" width="260" height="134.19" as="geometry" />
        </mxCell>
        <mxCell id="XJ3LXA7MW8zPhXsOhgYq-54" value="" style="group" vertex="1" connectable="0" parent="1">
          <mxGeometry x="1020" y="385" width="370" height="200" as="geometry" />
        </mxCell>
        <mxCell id="XJ3LXA7MW8zPhXsOhgYq-52" value="&lt;div style=&quot;text-align: justify&quot;&gt;&lt;span&gt;OutputStreamPoller&lt;/span&gt;&lt;/div&gt;" style="html=1;align=left;" vertex="1" parent="XJ3LXA7MW8zPhXsOhgYq-54">
          <mxGeometry width="370" height="200" as="geometry" />
        </mxCell>
        <mxCell id="XJ3LXA7MW8zPhXsOhgYq-37" value="OutputStreamPollerImpl" style="html=1;fillColor=#FFD966;" vertex="1" parent="XJ3LXA7MW8zPhXsOhgYq-54">
          <mxGeometry x="110" y="65.81" width="260" height="134.19" as="geometry" />
        </mxCell>
        <mxCell id="XJ3LXA7MW8zPhXsOhgYq-41" value="InputStreamManager" style="html=1;" vertex="1" parent="XJ3LXA7MW8zPhXsOhgYq-54">
          <mxGeometry x="245.6521739130435" y="152.07500000000005" width="124.34782608695652" height="47.925" as="geometry" />
        </mxCell>
        <mxCell id="XJ3LXA7MW8zPhXsOhgYq-45" value="GraphOutputStreamHandler" style="html=1;fillColor=#9AC7BF;" vertex="1" parent="XJ3LXA7MW8zPhXsOhgYq-54">
          <mxGeometry x="110" y="152.07500000000005" width="124.34782608695652" height="47.925" as="geometry" />
        </mxCell>
        <mxCell id="XJ3LXA7MW8zPhXsOhgYq-55" value="Next" style="html=1;verticalAlign=bottom;endArrow=block;" edge="1" parent="1">
          <mxGeometry width="80" relative="1" as="geometry">
            <mxPoint x="1390" y="430" as="sourcePoint" />
            <mxPoint x="1510" y="430" as="targetPoint" />
          </mxGeometry>
        </mxCell>
        <mxCell id="XJ3LXA7MW8zPhXsOhgYq-56" value="GraphNode" style="html=1;align=left;" vertex="1" parent="1">
          <mxGeometry x="780" y="440" width="160" height="130" as="geometry" />
        </mxCell>
      </root>
    </mxGraphModel>
  </diagram>
</mxfile>
